<svg xmlns="http://www.w3.org/2000/svg" id="Layer_1" viewBox="0 0 252.9 228.39"><path d="M164.39,63.59l-1.18,1.26c.53,.78,1.03,1.46,1.47,2.19,.53,.89,.22,1.87-.83,2.45-1.25,.68-1.8,1.78-1.96,3.11-.08,.71,.19,1.21,.96,1.4,2.67,.66,4.9,2.02,6.62,4.19,.22,.28,.73,.54,1.08,.5,2.56-.28,5.07,.14,7.59,.46,1.03,.13,2.09,.36,3.09-.1,.25-.12,.58-.42,.6-.66,.27-4.19,.52-8.39,.71-12.58,.02-.38-.36-.79-.58-1.18-.29-.52-.74-.99-.89-1.54-.19-.69-.57-.94-1.19-.93-.78,.01-1.56,.12-2.34,.13-1.24,.02-2.48,.02-3.72,0-.84-.01-1.58-.73-1.57-1.45,.01-.67,.82-1.51,1.54-1.53,1.13-.04,2.26,0,3.38-.07,1.2-.07,2.4-.14,3.58-.35,.75-.13,1.48-.48,2.19-.8,.92-.42,1.89-.24,2.55,.27,.99,.76,2.01,.72,3.1,.74,.44,0,.93,.01,1.3,.21,.31,.17,.69,.68,.63,.93-.09,.35-.53,.71-.89,.84-.4,.15-.89,.03-1.34,.04-.83,.03-1.09,.41-1.04,1.23,.16,2.58,.76,5.06,1.38,7.56,.38,1.54,.48,3.14,.73,4.71,.12,.74-.15,1.33-.76,1.63-1.45,.73-1.73,2.01-1.92,3.44-.16,1.14-.44,2.3-.86,3.37-.49,1.25-1.59,2-2.85,2.23-1.98,.35-3.99,.52-5.99,.71-1.53,.14-3.07,.2-4.63,.3,.67,2.9,.58,5.77-.17,8.61-.1,.36-.44,.71-.75,.96-.81,.65-1.06,1.3-.78,2.27,.3,1.02,.23,1.99-.39,2.88-.66,.95-.9,2.02-.88,3.17,.02,2.01-.01,4.03,.05,6.04,.03,1.17,.18,2.34,.33,3.51,.04,.27,.25,.55,.45,.77,2.04,2.34,3.59,5,4.78,7.82,1.12,2.66,1.96,5.44,2.89,8.18,.74,2.19,1.43,4.4,2.15,6.6,.5,1.54,1.01,3.07,1.52,4.61,.49,1.49,.49,3,.02,4.47-.48,1.48-.24,2.94-.22,4.42,.03,2.27,.86,4.35,1.48,6.48,.27,.92,.28,1.92,.46,2.87,.51,2.65,1.68,5,3.17,7.24,1.28,1.92,2.43,3.93,3.45,6,.42,.85,.34,1.96,.46,2.95,.06,.5,0,1.02,.1,1.51,.22,1.03-.06,1.76-.98,2.3-1.38,.8-2.91,1.09-4.48,1.18-1.99,.11-2.3,.54-2.21,2.46,.05,.98-.78,1.01-1.28,1.06-1.65,.16-3.31,.18-4.96,.2-.29,0-.7-.19-.85-.43-.71-1.15-1.1-1.31-2.4-.92-.95,.28-1.89,.76-2.92,.37-.24-.09-.62-.32-.62-.48,.02-.8-.65-1.07-1.08-1.51-1.71-1.73-2.32-3.77-1.85-6.14,.03-.13,.05-.3,.14-.39,1.06-1.07,.78-2.5,1-3.78,.59-3.44,.97-6.92,1.76-10.31,.86-3.66,2.15-7.21,3.11-10.85,.3-1.13,.36-2.42,.16-3.58-.6-3.45-2.16-6.52-4.13-9.4-.33-.48-.72-.77-1.33-.66-1.47,.28-2.93,.56-4.4,.84-.65,.12-.78,.61-.85,1.17-.36,2.88-.74,5.75-1.11,8.63-.36,2.79-.33,5.58-.13,8.39,.11,1.47-.06,2.97-.1,4.45,0,.3,.03,.61,.04,.91,.02,1.71,.03,3.43,.07,5.14,.02,.88-.03,1.78,.16,2.63,.43,1.91,1.38,3.58,2.68,5.05,.92,1.04,.87,1.72-.26,2.55-.88,.65-.51,1.55-.42,2.32,.13,1.18,.48,2.34,.72,3.52,.05,.24,.02,.51,.02,.76,0,.63-.29,.86-.91,.69-1.2-.32-1.62-.05-1.62,1.13,0,.98-.73,1.31-1.4,1.4-1.69,.22-3.4,.27-5.11,.33-.27,0-.69-.23-.81-.47-.37-.75-1.03-1.01-1.75-1.16-.7-.15-.93-.55-.87-1.21,.04-.47,.11-.95,.12-1.42,.02-1.08-.5-1.74-1.55-1.93-.77-.14-1.06-.54-1-1.34,.2-2.88,.33-5.77,.54-8.64,.07-.88,.37-1.74,.49-2.62,.25-1.71,.5-3.43,.66-5.15,.13-1.49,.21-2.99,.18-4.49-.06-2.7,.04-5.38,.79-8,.47-1.66,1.05-3.31,1.29-5,.28-1.95,.36-3.95,.34-5.93-.02-1.38-.16-1.37-1.45-1.67-3.09-.71-5.28-2.47-6.4-5.49-.43-1.17-.61-1.2-1.91-1.03-.87,.11-1.77,.14-2.64,.04-.7-.08-.84-.65-.7-1.34,.23-1.17,.38-2.36,.52-3.54,.06-.48-.15-.89-.68-1.01-2.15-.49-2.94-2.47-2.25-4.51,.43-1.27,.87-2.54,1.19-3.84,.42-1.7,.74-3.43,1.07-5.15,.32-1.67,.59-3.35,.91-5.02,.48-2.51,.73-5.03,.89-7.58,.11-1.77-.38-2.68-1.95-3.34-1.33-.56-2.55-1.36-3.81-2.08-.36-.21-.72-.45-1.02-.73-1.22-1.17-1.36-1.96-.25-3.19,1.57-1.74,3.26-3.37,4.94-5.01,.65-.64,1.4-1.18,2.11-1.76,.19-.16,.39-.34,.62-.43,1.34-.51,1.42-.55,.96-1.91-1.19-3.54,.69-6.63,3.91-7.98,.45-.19,.74-.73,1.11-1.11-.33-.3-.62-.66-.98-.9-1.21-.79-1.8-1.92-2.03-3.31-.36-2.14,.13-4.2,.45-6.3,.19-1.23,.28-2.45,.99-3.48,.27-.39,.76-.73,1.21-.87,.6-.19,1.26-.17,1.9-.24,.08,0,.18,.01,.25-.03,.78-.46,1.63-.84,2.32-1.42,.93-.78,1.84-1.11,2.86-.42,.81,.55,1.67,.72,2.56,.82,.97,.11,1.27,.69,1.35,1.52,.05,.47,.05,.96,.18,1.42,.08,.29,.32,.67,.57,.75,.94,.3,1.12,1.18,1.58,1.85,.36,.52,.8,1,1.26,1.44,.4,.38,.87,.69,1.41,1.1Z" fill="#ffffff"/><path d="M123.57,28.62c1.4-.02,1.34,1.56,2.44,1.8,.08-2.32-1.31-4.39-1.26-6.67l.31-.12c.21,.27,.48,.51,.61,.82,.31,.71,.54,1.47,.85,2.18,.16,.37,.43,.7,.66,1.05l.3-.09c.05-.31,.13-.62,.14-.93,.02-1.02-.01-2.03,.02-3.05,.01-.36,.14-.72,.22-1.09l.38-.05c.17,.48,.43,.95,.49,1.45,.09,.81,.02,1.63,.06,2.45,.02,.34,.15,.68,.27,1.19,1.21-1.1,.56-2.8,1.75-3.86,.59,1.53-.35,2.93-.03,4.48l2.06-1.26,.22,.15c-.3,.49-.51,1.06-.91,1.45-.66,.65-.87,1.38-.83,2.28,.03,.6-.19,1.22-.16,1.82,.04,.72,.13,1.46,.35,2.14,.89,2.72,1.79,5.44,2.8,8.11,.38,1,1.21,1.8,1.1,3.01-.02,.2,.4,.51,.68,.66,3.29,1.85,4.68,4.75,4.9,8.41,.05,.8,.67,1.54,.96,2.34,.94,2.64,1.25,5.36,.91,8.16-.17,1.42-.14,2.86-.22,4.29-.07,1.23-.15,2.46-.24,3.69-.01,.16-.05,.35-.14,.48-.7,.9-.95,1.96-.98,3.06-.02,.59-.35,.92-.82,1.03-1.87,.46-3.75,.69-5.61-.11-.8-.35-1.39-.74-1.22-1.81,.08-.51-.13-1.1-.34-1.61-.2-.48-1.32-.73-1.71-.4-.17,.14-.21,.48-.23,.74-.14,1.69-.06,3.42-.43,5.06-.53,2.35-1.5,4.6-2.07,6.94-.35,1.43-.44,2.96-.41,4.44,.05,2.16,.19,4.33,.53,6.45,.27,1.69,.92,3.31,1.36,4.98,.67,2.52,1.08,5.08,1.14,7.69,.04,1.8,.19,3.6,.12,5.39-.13,3.47-.48,6.92-1.55,10.26-.73,2.28-1.41,4.58-2.02,6.9-.25,.96-.35,1.99-.38,2.99-.12,4.16-.2,8.33-.29,12.49-.01,.53-.04,1.06-.08,1.59-.08,1.08,.88,1.63,1.25,2.49,.9,2.11,1.69,4.2,1.62,6.57-.05,1.59,.19,3.18,.31,4.77,.01,.14,.02,.3,.09,.41,1.24,1.72,1.2,3.72,1.25,5.7,.07,3.06,.64,5.99,2.29,8.63,.65,1.04,.27,1.64-.49,2.13-.89,.56-1.97,.87-3,1.17-.48,.14-.84,.15-1.06,.73-.43,1.1-1.99,1.6-3.23,1.14q-1.41-.52-2.25,.7c-.77,1.12-3.24,1.55-4.63,.82-.63-.33-1.01-.71-1.05-1.58-.03-.73-.47-1.54-.96-2.12-.57-.69-1.23-.5-1.69,.29-.17,.29-.32,.59-.45,.9-.57,1.38-1.91,1.95-3.27,1.35-.68-.3-1.25-.71-1.35-1.53-.02-.2,0-.43-.09-.58-.22-.36-.46-.89-.77-.96-.27-.06-.75,.36-.99,.68-.7,.93-.82,1.07-1.71,.36-1.1-.87-2.09-1.91-3.05-2.94-.18-.19-.09-.8,.08-1.1,.54-1,1.18-1.95,1.78-2.92,.71-1.16,.61-2.33,.12-3.54-.14-.36-.17-.88-.02-1.22,.72-1.59,1.32-3.16,1.23-4.98-.06-1.25,.34-2.46,1.11-3.52,1.31-1.82,1.96-3.95,2.47-6.08,.41-1.72,.63-3.53,.66-5.31,.08-5.78,.08-11.57-.02-17.35-.02-.97-.65-1.93-.95-2.9-.75-2.41-1.55-4.82-2.2-7.26-.54-2.04-.98-4.12-1.31-6.21-.26-1.63-.32-3.29-.39-4.94-.03-.75-.27-1.05-1.04-1.05-1.32,0-2.64-.09-3.96-.16-.69-.03-1.09-.54-.9-1.3,.17-.7,.2-1.23-.51-1.67-.22-.14-.39-.62-.33-.89,.3-1.2,.03-2.31-.34-3.44-.5-1.53-.02-3.03,.16-4.55,.08-.63,.03-1.36-.22-1.92-.73-1.61-.77-3.11-.16-4.83,.56-1.57,.61-3.33,.84-5.01,.28-2.16,.52-4.32,.76-6.49,.05-.42,.07-.85,.03-1.27-.07-.86,.14-1.63,.68-2.28,1.09-1.3,1.46-2.89,1.37-4.46-.16-2.76,1.67-3.92,3.64-4.97,1.08-.57,2.27-.97,3.58-.84,.9,.09,1.4-.86,1.03-1.81-.09-.23-.25-.43-.38-.65-.69-1.16-.75-2.29,.07-3.44,.58-.81,.92-1.74,.78-2.76-.05-.37-.18-.87-.44-1.04-1.44-.95-1.34-2.42-1.04-3.7,.42-1.79,1.03-3.6,1.9-5.22,1.09-2.02,2.9-3.36,5.3-3.48,1.24-.06,2.54,0,3.73,.32,2.02,.54,2.97,2.18,3.54,4.08,.07,.25,.3,.45,.45,.68,.21-.18,.51-.32,.61-.55,.77-1.65,1.8-3,3.64-3.58,.25-.08,.56-.62,.51-.9-.24-1.48-.52-2.96-.9-4.41-.35-1.34-.95-2.61-1.24-3.96-.43-2.01-1.57-3.6-2.73-5.2-.38-.52-.81-1-1.18-1.53-.15-.22-.17-.53-.28-.9Z" fill="#ffffff"/><path d="M78.2,52.94c.79-.04,1.57-.09,2.36-.11,1.24-.02,1.23-.06,1.15-1.24-.06-.93-.07-1.92,.19-2.8,.15-.49,.84-1.06,1.37-1.15,2.49-.44,4.85-.23,6.64,1.92,.19,.23,.63,.37,.94,.35,2.09-.16,3.3,1.01,4.12,2.72,.73,1.53,1.05,3.17,1.08,4.85,.04,2.01,.15,4.04-.03,6.04-.2,2.16-.36,4.4-2.2,6.01-.3,.26-.47,.69-.67,1.06-.62,1.11-.58,1.57,.39,2.28,.99,.73,1.56,1.56,1.8,2.86,.28,1.48,1.02,2.88,1.65,4.28,.46,1.01,.28,1.92-.21,2.8-.48,.87-1.33,.77-2.09,.59-.55-.13-.67,.06-.65,.52,.05,1.47,.07,2.87,1.08,4.19,.72,.95,1,2.27,1.32,3.47,.52,1.96,.9,3.96,1.34,5.94,.02,.11,.02,.22,.02,.34,0,3.44,.23,2.37-2.61,3.69-1.27,.59-2.72,.82-4.07,1.25-.19,.06-.42,.38-.42,.57,0,1.15,.05,2.31,.13,3.45,.13,1.87,.24,3.74,.45,5.61,.28,2.54,.45,5.09,1.23,7.58,.65,2.09,.93,4.31,1.32,6.47,.48,2.63,.97,5.26,1.34,7.91,.3,2.19,.46,4.4,.62,6.61,.08,1.08-.16,1.33-1.26,1.44-1.47,.15-2.95,.25-4.43,.3-.61,.02-.87,.19-.84,.83,.04,.9-.02,1.81,.02,2.71,.03,.69-.25,.88-.89,.87-2.57-.02-5.13,0-7.7-.02-.73,0-1.06,.18-1.06,.99,0,2.16-.1,4.33-.14,6.49-.07,3.52-.12,7.04-.18,10.56,0,.25-.16,.5-.13,.73,.04,.36,.11,.76,.29,1.05,.5,.79,1.06,1.55,1.62,2.3,.97,1.29,1.92,2.6,2.98,3.82,.54,.62,.71,1.2,.32,1.88-.34,.59-.76,1.15-1.23,1.65-.3,.33-.67,.29-.98-.14-.62-.83-1.36-1.57-1.92-2.43-.53-.8-1.29-.17-1.87-.47-.15,.36-.38,.7-.45,1.08-.25,1.4-.5,2.93,.72,3.93,1.15,.94,1.1,2.03,1.01,3.25-.03,.48-.02,.96,0,1.44,.02,.55-.1,.89-.77,.68-.21-.07-.45-.01-.67-.04-.99-.1-1.73,.11-2.05,1.23-.17,.56-.61,1.06-.97,1.55-.83,1.14-2.13,1.28-3.1,.28-.49-.51-.93-1.15-1.19-1.81-.22-.58-.52-.69-1.06-.7-2.02,0-4.04-.06-5.95-.84-.35-.14-.77-.59-.8-.93-.09-1.1-.07-2.21,0-3.31,.04-.65,.3-1.08,1.19-.94,.56,.09,1.29-.16,1.79-.49,.9-.59,1.73-1.32,2.53-2.07,1.59-1.48,1.53-3.4,.92-5.19-1.92-5.66-3.94-11.31-6.7-16.62-.96-1.85-2.29-3.5-3.42-5.27-1.47-2.3-3.04-4.55-4.34-6.94-1.07-1.98-1.16-4.25-.54-6.4,.79-2.69,1.91-5.29,2.68-7.98,.63-2.22,.91-4.54,1.43-6.79,.8-3.45,1.6-6.91,3.63-9.91,.18-.26,.27-.62,.28-.95,.12-2.66,.12-5.34,.35-7.99,.23-2.66,.37-5.4,1.11-7.94,.84-2.85,1.19-5.71,1.39-8.62,.08-1.19,0-2.39,.02-3.58,0-.58-.29-.64-.76-.55-1.37,.25-2.73,.58-4.11,.71-1.77,.17-3.55,.21-5.32,.24-.59,0-1.03-.25-1.01-1.03,.09-4.17,.03-8.35,.22-12.51,.11-2.24,.62-4.46,.94-6.7,.11-.75,.09-1.53,.28-2.25,.27-1.01,.67-1.98,1.05-3.05-.65,0-1.29-.02-1.92,0-.57,.02-.89-.24-.82-.79,.07-.52,.06-1.17,.84-1.24,.22-.02,.45-.01,.68,0,1.07,.06,2.01-.06,2.93-.83,1.08-.91,2.51-.89,3.84-.52,.42,.12,.95,.57,1.04,.96,.15,.65,.51,.63,.96,.64,.99,.03,1.97,.05,2.96,.08,2.08,.07,4.15,.14,6.23,.2,.78,.02,1.25,.57,1.27,1.46,0,.66-.43,1.07-1.22,1.04-3.34-.1-6.68-.22-10.02-.33-.86-.03-1.47,.2-2.01,1.01-.62,.93-1.56,1.65-2.32,2.5-.24,.26-.48,.64-.48,.97-.03,3.52-.04,7.05,0,10.57,0,.69,.15,1.39,.29,2.07,.16,.83,.82,1.17,1.52,.74,2.22-1.36,4.61-2.3,7.13-2.95,1.59-.41,1.53-.46,1.73-2.08,.24-2,.91-3.81,2.61-5.06,1.44-1.07,3.05-1.23,4.75-.86,.43,.09,.87,.23,1.3,.22,1.22-.04,1.7-.97,.96-1.94-.55-.72-1.21-1.39-1.92-1.96-1.02-.83-1.14-1.96-.26-2.97,.26-.3,.37-.72,.57-1.07,.19-.34,.44-.65,.62-1,.12-.24,.19-.52,.22-.79,.03-.45,0-.9,0-1.35v-.33Zm-2.7,78.77h.29c.14-.54,.33-1.09,.42-1.64,.25-1.71,.48-3.42,.67-5.14,.21-1.91,.38-3.83,.57-5.75,.06-.64-.23-1.04-.84-1.15-.71-.13-1.02,.39-1.19,.93-.18,.58-.33,1.21-.32,1.81,.05,3.31,.15,6.62,.25,9.93,0,.34,.1,.68,.16,1.02Zm-7.1,11.52c-.17-.99-.27-1.82-.45-2.63-.25-1.14-.53-2.27-.86-3.39-.15-.52-.54-.63-.8-.08-.37,.79-.7,1.62-.94,2.46-.27,.97,1.1,3.34,2.06,3.63,.25,.08,.54,.01,.99,.01Z" fill="#ffffff"/></svg>